# Blender v2.92.0 OBJ File: 'FaultCrack.blend'
# www.blender.org
mtllib FaultCrack.mtl
o Cube
v -1.334283 3.329425 2.521345
v 0.018668 0.000000 7.468092
v -0.795678 3.162841 7.468092
v 0.437168 3.026109 4.717188
v 0.018668 0.000000 4.994719
v -2.393360 0.000000 0.047972
v -2.393360 2.892401 9.825465
v -2.393360 0.000000 9.941465
v 0.018668 2.892401 0.047972
v 0.018668 0.000000 0.047972
v 0.018668 2.714526 9.825465
v 0.018668 0.000000 9.941465
v -2.393360 2.892401 0.047972
v 0.018668 0.000000 2.521345
v 0.018668 0.000000 1.284658
v -1.215067 3.237820 1.284658
v 0.741210 3.010405 3.758032
v 0.018668 0.000000 3.758032
v 0.096355 3.157055 6.231405
v 0.018668 0.000000 6.231405
v 0.018668 0.000000 8.704779
v 0.296660 2.413668 8.704779
vt 0.625000 0.000000
vt 0.375000 0.250000
vt 0.375000 0.000000
vt 0.625000 0.250000
vt 0.375000 0.500000
vt 0.375000 0.250000
vt 0.625000 0.500000
vt 0.375000 0.750000
vt 0.375000 0.500000
vt 0.628906 0.998047
vt 0.375000 1.000000
vt 0.375000 0.843750
vt 0.375000 0.687500
vt 0.375000 0.816406
vt 0.125000 0.750000
vt 0.875000 0.748047
vt 0.625000 0.687500
vt 0.625000 0.562500
vt 0.375000 0.753906
vt 0.625000 0.875000
vt 0.375000 0.875000
vt 0.625000 0.876953
vt 0.373047 0.998047
vt 0.375000 0.876953
vt 0.625000 0.781250
vt 0.375000 0.916016
vt 0.375000 0.781250
vt 0.625000 0.750000
vt 0.375000 0.873047
vt 0.375000 0.750000
vt 0.375000 0.812500
vt 0.625000 0.814453
vt 0.375000 0.939453
vt 0.625000 0.998047
vt 0.375000 0.998047
vt 0.373047 0.837891
vt 0.628906 0.968750
vt 0.375000 0.968750
vt 0.625000 0.250000
vt 0.625000 0.500000
vt 0.625000 0.750000
vt 0.625000 0.808594
vt 0.628906 1.000000
vt 0.125000 0.500000
vt 0.376230 0.625000
vt 0.373047 0.626953
vt 0.375000 0.414062
vt 0.375000 0.562500
vt 0.375000 0.449219
vt 0.375000 0.593750
vt 0.375000 0.451172
vt 0.375000 0.623047
vt 0.375000 0.750000
vt 0.375000 0.500000
vt 0.375000 0.656250
vt 0.375000 0.812500
vt 0.625000 0.625000
vt 0.875000 0.500000
vt 0.625000 0.750000
vt 0.625000 0.632812
vt 0.933594 0.656250
vt 0.625000 0.656250
vt 0.925781 0.625000
vt 0.625000 0.816406
vt 0.625000 0.501953
vt 0.625000 0.623047
vt 0.625000 0.697266
vt 0.925781 0.593750
vt 0.375000 0.843750
vt 0.625000 0.843750
vt 0.625000 0.968750
vt 0.625000 0.875000
vt 0.625000 1.000000
vt 0.373047 1.000000
vt 0.625000 0.683594
vt 0.625000 0.812500
vt 0.625000 0.628906
vt 0.625000 0.939453
vt 0.373047 0.873047
vt 0.625000 0.873047
vt 0.626953 0.998047
vn 0.0000 0.0427 0.9991
vn 0.0000 0.0000 -1.0000
vn -1.0000 0.0000 0.0000
vn 0.9934 -0.1144 0.0000
vn 0.0000 -1.0000 0.0000
vn -0.1024 0.9937 0.0446
vn 0.9906 -0.1370 0.0000
vn 0.9997 -0.0246 0.0000
vn 0.9345 0.3561 0.0000
vn 1.0000 0.0000 0.0000
vn 0.9724 -0.2334 0.0000
vn 0.0030 0.0401 0.9992
vn 0.9712 0.0102 0.2382
vn 0.0000 0.9631 -0.2690
vn 0.0714 0.9676 -0.2421
vn 0.0461 0.9985 0.0286
vn 0.2126 0.9765 -0.0366
vn 0.2864 0.9104 0.2985
vn -0.1912 0.9773 -0.0908
vn -0.3814 0.9244 0.0000
vn 0.1362 0.9903 0.0269
vn 0.9282 -0.2228 0.2979
vn 0.7943 0.2045 0.5720
vn 0.9247 0.3758 0.0613
vn 0.7181 0.2736 0.6399
vn 0.5241 0.2130 -0.8246
vn 0.9672 -0.1129 0.2275
vn 0.7917 0.2039 -0.5758
usemtl Material
s off
f 11/1/1 8/2/1 12/3/1
f 13/4/2 10/5/2 6/6/2
f 7/7/3 6/8/3 8/9/3
f 22/10/4 12/11/4 21/12/4
f 2/13/5 21/14/5 8/15/5
f 7/16/6 3/17/6 1/18/6
f 18/19/7 4/20/7 5/21/7
f 19/22/8 2/23/8 20/24/8
f 16/25/9 14/26/9 15/27/9
f 9/28/10 15/29/10 10/30/10
f 14/31/11 17/32/11 18/33/11
f 5/21/8 19/34/8 20/35/8
f 2/36/4 22/37/4 21/38/4
f 11/1/12 7/39/12 8/2/12
f 13/4/2 9/40/2 10/5/2
f 7/7/3 13/41/3 6/8/3
f 22/42/13 11/43/13 12/11/13
f 8/15/5 6/44/5 5/45/5
f 6/44/5 10/5/5 15/46/5
f 15/47/5 14/48/5 6/44/5
f 14/49/5 18/50/5 6/44/5
f 6/44/5 18/51/5 5/45/5
f 21/52/5 12/53/5 8/15/5
f 5/54/5 20/55/5 8/15/5
f 20/55/5 2/56/5 8/15/5
f 16/57/14 9/40/14 13/58/14
f 7/16/15 11/59/15 22/60/15
f 3/17/16 19/61/16 1/18/16
f 19/62/17 4/63/17 1/18/17
f 7/16/18 22/64/18 3/17/18
f 16/65/19 13/58/19 1/66/19
f 13/58/20 7/16/20 1/18/20
f 4/67/21 17/68/21 1/18/21
f 18/69/22 17/70/22 4/71/22
f 19/72/23 3/73/23 2/74/23
f 16/75/24 1/76/24 14/31/24
f 9/77/25 16/25/25 15/27/25
f 14/31/26 1/76/26 17/78/26
f 5/21/27 4/20/27 19/34/27
f 2/79/28 3/80/28 22/81/28
