# Blender v2.82 (sub 7) OBJ File: ''
# www.blender.org
mtllib watercircle.mtl
o Cylinder
v 0.000000 0.000000 -1.000000
v 0.707107 0.000000 -0.707107
v 1.000000 0.000000 0.000000
v 0.707107 0.000000 0.707107
v -0.000000 0.000000 1.000000
v -0.707107 0.000000 0.707107
v -1.000000 0.000000 -0.000000
v -0.707107 0.000000 -0.707107
v -0.000000 0.000000 -0.000000
vt 0.419706 0.419706
vt 0.250000 0.490000
vt 0.250000 0.250000
vt 0.080294 0.419706
vt 0.010000 0.250000
vt 0.080294 0.080294
vt 0.250000 0.010000
vt 0.419706 0.080294
vt 0.490000 0.250000
vn 0.0000 1.0000 0.0000
usemtl None
s off
f 2/1/1 1/2/1 9/3/1
f 1/2/1 8/4/1 9/3/1
f 8/4/1 7/5/1 9/3/1
f 7/5/1 6/6/1 9/3/1
f 6/6/1 5/7/1 9/3/1
f 5/7/1 4/8/1 9/3/1
f 4/8/1 3/9/1 9/3/1
f 3/9/1 2/1/1 9/3/1
