{
  "accessors": [
    {
      "bufferView": 0,
      "componentType": 5126,
      "count": 1087,
      "type": "VEC3",
      "max": [
        0.34255713224411011,
        0.73229163885116577,
        0.31082412600517273
      ],
      "min": [
        -0.34255713224411011,
        -7.1054271987823242E-17,
        -0.31082412600517273
      ]
    },
    {
      "bufferView": 1,
      "componentType": 5126,
      "count": 1087,
      "type": "VEC3",
      "max": [
        0.99997782707214355,
        1.0,
        1.0
      ],
      "min": [
        -0.99997782707214355,
        -1.0,
        -0.99999940395355225
      ]
    },
    {
      "bufferView": 2,
      "componentType": 5126,
      "count": 1087,
      "type": "VEC4",
      "max": [
        1.0,
        0.99974960088729858,
        0.99996650218963623,
        -1.0
      ],
      "min": [
        -1.0,
        -0.999997615814209,
        -0.99996650218963623,
        -1.0
      ]
    },
    {
      "bufferView": 3,
      "componentType": 5126,
      "count": 1087,
      "type": "VEC2",
      "max": [
        0.98677593469619751,
        0.97762984037399292
      ],
      "min": [
        0.0077882483601570129,
        0.011583654209971428
      ]
    },
    {
      "bufferView": 4,
      "componentType": 5125,
      "count": 4290,
      "type": "SCALAR",
      "max": [
        1086.0
      ],
      "min": [
        0.0
      ]
    },
    {
      "bufferView": 5,
      "componentType": 5126,
      "count": 208,
      "type": "VEC3",
      "max": [
        0.40000006556510925,
        0.45000007748603821,
        0.3999999463558197
      ],
      "min": [
        -0.40000024437904358,
        -2.8911446570134558E-09,
        -0.40000006556510925
      ]
    },
    {
      "bufferView": 6,
      "componentType": 5126,
      "count": 208,
      "type": "VEC3",
      "max": [
        1.0,
        1.0,
        1.0
      ],
      "min": [
        -1.0,
        -1.0,
        -1.0
      ]
    },
    {
      "bufferView": 7,
      "componentType": 5126,
      "count": 208,
      "type": "VEC4",
      "max": [
        1.0,
        1.0,
        1.0,
        -1.0
      ],
      "min": [
        -1.0,
        -1.0,
        -1.0,
        -1.0
      ]
    },
    {
      "bufferView": 8,
      "componentType": 5126,
      "count": 208,
      "type": "VEC2",
      "max": [
        0.9938807487487793,
        0.98741394281387329
      ],
      "min": [
        0.017651082947850227,
        0.020366616547107697
      ]
    },
    {
      "bufferView": 9,
      "componentType": 5125,
      "count": 324,
      "type": "SCALAR",
      "max": [
        207.0
      ],
      "min": [
        0.0
      ]
    },
    {
      "bufferView": 10,
      "componentType": 5126,
      "count": 208,
      "type": "VEC3",
      "max": [
        0.40000006556510925,
        0.75,
        0.39999997615814209
      ],
      "min": [
        -0.40000024437904358,
        -1.5308084002953373E-17,
        -0.39999997615814209
      ]
    },
    {
      "bufferView": 11,
      "componentType": 5126,
      "count": 208,
      "type": "VEC3",
      "max": [
        1.0,
        1.0,
        1.0
      ],
      "min": [
        -1.0,
        -1.0,
        -1.0
      ]
    },
    {
      "bufferView": 12,
      "componentType": 5126,
      "count": 208,
      "type": "VEC4",
      "max": [
        1.0,
        1.0,
        1.0,
        -1.0
      ],
      "min": [
        -1.0,
        -1.0,
        -1.0,
        -1.0
      ]
    },
    {
      "bufferView": 13,
      "componentType": 5126,
      "count": 208,
      "type": "VEC2",
      "max": [
        0.96500146389007568,
        0.98741394281387329
      ],
      "min": [
        0.017651082947850227,
        0.01335572823882103
      ]
    },
    {
      "bufferView": 14,
      "componentType": 5125,
      "count": 324,
      "type": "SCALAR",
      "max": [
        207.0
      ],
      "min": [
        0.0
      ]
    },
    {
      "bufferView": 15,
      "componentType": 5126,
      "count": 1081,
      "type": "VEC3",
      "max": [
        0.31128162145614624,
        0.77020108699798584,
        0.31480652093887329
      ],
      "min": [
        -0.30886498093605042,
        -1.7647646905912629E-17,
        -0.31479713320732117
      ]
    },
    {
      "bufferView": 16,
      "componentType": 5126,
      "count": 1081,
      "type": "VEC3",
      "max": [
        0.999990701675415,
        0.999997615814209,
        0.99999988079071045
      ],
      "min": [
        -0.99999737739562988,
        -1.0,
        -0.99999487400054932
      ]
    },
    {
      "bufferView": 17,
      "componentType": 5126,
      "count": 1081,
      "type": "VEC4",
      "max": [
        0.99998664855957031,
        0.999756395816803,
        0.999985933303833,
        -1.0
      ],
      "min": [
        -0.99999451637268066,
        -1.0,
        -0.99999511241912842,
        -1.0
      ]
    },
    {
      "bufferView": 18,
      "componentType": 5126,
      "count": 1081,
      "type": "VEC2",
      "max": [
        0.98566406965255737,
        0.98071408271789551
      ],
      "min": [
        0.012771338224411011,
        0.031664848327636719
      ]
    },
    {
      "bufferView": 19,
      "componentType": 5125,
      "count": 4290,
      "type": "SCALAR",
      "max": [
        1080.0
      ],
      "min": [
        0.0
      ]
    }
  ],
  "asset": {
    "generator": "UnityGLTF (2018.2.9f1)",
    "version": "2.0"
  },
  "buffers": [
    {
      "uri": "Unity2Skfb.bin",
      "byteLength": 160944
    }
  ],
  "bufferViews": [
    {
      "buffer": 0,
      "byteLength": 13044
    },
    {
      "buffer": 0,
      "byteOffset": 13044,
      "byteLength": 13044
    },
    {
      "buffer": 0,
      "byteOffset": 26088,
      "byteLength": 17392
    },
    {
      "buffer": 0,
      "byteOffset": 43480,
      "byteLength": 8696
    },
    {
      "buffer": 0,
      "byteOffset": 52176,
      "byteLength": 17160
    },
    {
      "buffer": 0,
      "byteOffset": 69336,
      "byteLength": 2496
    },
    {
      "buffer": 0,
      "byteOffset": 71832,
      "byteLength": 2496
    },
    {
      "buffer": 0,
      "byteOffset": 74328,
      "byteLength": 3328
    },
    {
      "buffer": 0,
      "byteOffset": 77656,
      "byteLength": 1664
    },
    {
      "buffer": 0,
      "byteOffset": 79320,
      "byteLength": 1296
    },
    {
      "buffer": 0,
      "byteOffset": 80616,
      "byteLength": 2496
    },
    {
      "buffer": 0,
      "byteOffset": 83112,
      "byteLength": 2496
    },
    {
      "buffer": 0,
      "byteOffset": 85608,
      "byteLength": 3328
    },
    {
      "buffer": 0,
      "byteOffset": 88936,
      "byteLength": 1664
    },
    {
      "buffer": 0,
      "byteOffset": 90600,
      "byteLength": 1296
    },
    {
      "buffer": 0,
      "byteOffset": 91896,
      "byteLength": 12972
    },
    {
      "buffer": 0,
      "byteOffset": 104868,
      "byteLength": 12972
    },
    {
      "buffer": 0,
      "byteOffset": 117840,
      "byteLength": 17296
    },
    {
      "buffer": 0,
      "byteOffset": 135136,
      "byteLength": 8648
    },
    {
      "buffer": 0,
      "byteOffset": 143784,
      "byteLength": 17160
    }
  ],
  "images": [
    {
      "uri": "544672_re_arm_N.png",
      "name": "re_arm_N"
    },
    {
      "uri": "10756_re_arm_alb.jpg",
      "name": "re_arm_alb"
    },
    {
      "uri": "544676_re_arm_met.png",
      "name": "re_arm_met"
    },
    {
      "uri": "544680_re_tb_02_Normal.png",
      "name": "re_tb_02_Normal"
    },
    {
      "uri": "11280_re_tb_02_alb.jpg",
      "name": "re_tb_02_alb"
    },
    {
      "uri": "544684_re_tb_02_met.png",
      "name": "re_tb_02_met"
    },
    {
      "uri": "544686_re_tb_01_N.png",
      "name": "re_tb_01_N"
    },
    {
      "uri": "11730_re_tb_01_alb.jpg",
      "name": "re_tb_01_alb"
    },
    {
      "uri": "544690_re_tb_01_Met.png",
      "name": "re_tb_01_Met"
    },
    {
      "uri": "544692_re_chair_N.png",
      "name": "re_chair_N"
    },
    {
      "uri": "10806_re_chair_alb.jpg",
      "name": "re_chair_alb"
    },
    {
      "uri": "544696_re_chair_met.png",
      "name": "re_chair_met"
    }
  ],
  "materials": [
    {
      "pbrMetallicRoughness": {
        "baseColorTexture": {
          "index": 1
        },
        "metallicFactor": 0.0,
        "roughnessFactor": 0.5,
        "metallicRoughnessTexture": {
          "index": 2
        }
      },
      "normalTexture": {
        "index": 0
      },
      "occlusionTexture": {
        "index": 2
      },
      "name": "re_arm"
    },
    {
      "pbrMetallicRoughness": {
        "baseColorTexture": {
          "index": 4
        },
        "metallicFactor": 0.0,
        "roughnessFactor": 0.5,
        "metallicRoughnessTexture": {
          "index": 5
        }
      },
      "normalTexture": {
        "index": 3
      },
      "occlusionTexture": {
        "index": 5
      },
      "name": "re_tb_02"
    },
    {
      "pbrMetallicRoughness": {
        "baseColorTexture": {
          "index": 7
        },
        "metallicFactor": 0.0,
        "roughnessFactor": 0.5,
        "metallicRoughnessTexture": {
          "index": 8
        }
      },
      "normalTexture": {
        "index": 6
      },
      "occlusionTexture": {
        "index": 8
      },
      "name": "re_tb_01"
    },
    {
      "pbrMetallicRoughness": {
        "baseColorTexture": {
          "index": 10
        },
        "metallicFactor": 0.0,
        "roughnessFactor": 0.5,
        "metallicRoughnessTexture": {
          "index": 11
        }
      },
      "normalTexture": {
        "index": 9
      },
      "occlusionTexture": {
        "index": 11
      },
      "name": "re_chair"
    }
  ],
  "meshes": [
    {
      "primitives": [
        {
          "attributes": {
            "POSITION": 0,
            "NORMAL": 1,
            "TANGENT": 2,
            "TEXCOORD_0": 3
          },
          "indices": 4,
          "material": 0
        }
      ],
      "name": "re_arm (1)"
    },
    {
      "primitives": [
        {
          "attributes": {
            "POSITION": 5,
            "NORMAL": 6,
            "TANGENT": 7,
            "TEXCOORD_0": 8
          },
          "indices": 9,
          "material": 1
        }
      ],
      "name": "re_tb_02"
    },
    {
      "primitives": [
        {
          "attributes": {
            "POSITION": 10,
            "NORMAL": 11,
            "TANGENT": 12,
            "TEXCOORD_0": 13
          },
          "indices": 14,
          "material": 2
        }
      ],
      "name": "re_tb_01 (1)"
    },
    {
      "primitives": [
        {
          "attributes": {
            "POSITION": 15,
            "NORMAL": 16,
            "TANGENT": 17,
            "TEXCOORD_0": 18
          },
          "indices": 19,
          "material": 3
        }
      ],
      "name": "re_chair (1)"
    }
  ],
  "nodes": [
    {
      "mesh": 0,
      "rotation": [
        0.0,
        1.0,
        0.0,
        0.0
      ],
      "translation": [
        -2.07,
        0.0,
        -0.99
      ],
      "name": "re_arm (1)"
    },
    {
      "mesh": 1,
      "rotation": [
        2.18556941E-08,
        0.0,
        0.0,
        -1.0
      ],
      "translation": [
        -2.089,
        0.0,
        -0.0859999657
      ],
      "name": "re_tb_02"
    },
    {
      "mesh": 0,
      "rotation": [
        0.0,
        0.7071068,
        0.0,
        -0.7071068
      ],
      "scale": [
        1.00000024,
        1.0,
        1.00000024
      ],
      "translation": [
        -3.024,
        0.0,
        -0.0620424747
      ],
      "name": "re_arm (2)"
    },
    {
      "mesh": 2,
      "rotation": [
        0.0,
        0.7071068,
        0.0,
        -0.7071068
      ],
      "scale": [
        1.00000024,
        1.0,
        1.00000024
      ],
      "translation": [
        0.828,
        0.0,
        -0.242
      ],
      "name": "re_tb_01 (1)"
    },
    {
      "mesh": 0,
      "rotation": [
        0.0,
        -0.7071068,
        0.0,
        -0.7071068
      ],
      "scale": [
        1.00000024,
        1.0,
        1.00000024
      ],
      "translation": [
        -1.11799991,
        0.0,
        -0.0620424747
      ],
      "name": "re_arm (3)"
    },
    {
      "mesh": 0,
      "rotation": [
        2.18556941E-08,
        0.0,
        0.0,
        -1.0
      ],
      "translation": [
        -2.102,
        0.0,
        0.849000037
      ],
      "name": "re_arm"
    },
    {
      "mesh": 3,
      "rotation": [
        0.0,
        1.0,
        0.0,
        0.0
      ],
      "translation": [
        0.911,
        0.0,
        -1.025
      ],
      "name": "re_chair (1)"
    },
    {
      "mesh": 2,
      "rotation": [
        0.0,
        0.7071068,
        0.0,
        -0.7071068
      ],
      "scale": [
        1.00000024,
        1.0,
        1.00000024
      ],
      "translation": [
        0.0279998779,
        0.0,
        -0.241999984
      ],
      "name": "re_tb_01"
    },
    {
      "mesh": 3,
      "rotation": [
        2.18556941E-08,
        0.0,
        0.0,
        -1.0
      ],
      "translation": [
        0.866999865,
        0.0,
        0.594
      ],
      "name": "re_chair (3)"
    },
    {
      "mesh": 3,
      "rotation": [
        0.0,
        1.0,
        0.0,
        0.0
      ],
      "translation": [
        0.04399991,
        0.0,
        -1.01899993
      ],
      "name": "re_chair (2)"
    },
    {
      "mesh": 3,
      "rotation": [
        2.18556941E-08,
        0.0,
        0.0,
        -1.0
      ],
      "translation": [
        0.04399991,
        0.0,
        0.5990001
      ],
      "name": "re_chair"
    }
  ],
  "samplers": [
    {
      "minFilter": 9729
    }
  ],
  "scene": 0,
  "scenes": [
    {
      "nodes": [
        0,
        1,
        2,
        3,
        4,
        5,
        6,
        7,
        8,
        9,
        10
      ],
      "name": "Unity2Skfb"
    }
  ],
  "textures": [
    {
      "sampler": 0,
      "source": 0,
      "name": "re_arm_N"
    },
    {
      "sampler": 0,
      "source": 1,
      "name": "re_arm_alb"
    },
    {
      "sampler": 0,
      "source": 2,
      "name": "re_arm_met"
    },
    {
      "sampler": 0,
      "source": 3,
      "name": "re_tb_02_Normal"
    },
    {
      "sampler": 0,
      "source": 4,
      "name": "re_tb_02_alb"
    },
    {
      "sampler": 0,
      "source": 5,
      "name": "re_tb_02_met"
    },
    {
      "sampler": 0,
      "source": 6,
      "name": "re_tb_01_N"
    },
    {
      "sampler": 0,
      "source": 7,
      "name": "re_tb_01_alb"
    },
    {
      "sampler": 0,
      "source": 8,
      "name": "re_tb_01_Met"
    },
    {
      "sampler": 0,
      "source": 9,
      "name": "re_chair_N"
    },
    {
      "sampler": 0,
      "source": 10,
      "name": "re_chair_alb"
    },
    {
      "sampler": 0,
      "source": 11,
      "name": "re_chair_met"
    }
  ]
}